# xmcd CD database file
#
# Track frame offsets:
#	150
#	41873
#	60225
#	95710
#	119960
#	146108
#	168222
#	199463
#	228963
#	272969
#	299928
#
# Disc length: 4254 seconds
#
# Revision: 0
# Processed by: cddbd v1.5.2PL0 Copyright (c) Steve Scherf et al.
# Submitted via: CDex 1.70beta2
#
DISCID=ba109c0b
DTITLE=Claus Raible Trio - Live at Birdland Neuburg
DYEAR=2004
DGENRE=Jazz
TTITLE0=Tin Tin Deo
TTITLE1=Just you, just me
TTITLE2=Body and Soul
TTITLE3=Bud's Blues
TTITLE4=Mutiny on Bounty
TTITLE5=Roll on
TTITLE6=Round Midnight
TTITLE7=Well, you needn't
TTITLE8=Sir Ivan
TTITLE9=Shaw 'nuff
TTITLE10=Ask me now
EXTD=YEAR: 2004
EXTT0=
EXTT1=
EXTT2=
EXTT3=
EXTT4=
EXTT5=
EXTT6=
EXTT7=
EXTT8=
EXTT9=
EXTT10=
PLAYORDER=
